<?xml version="1.0" encoding="UTF-8" standalone="no"?><!DOCTYPE svg PUBLIC "-//W3C//DTD SVG 1.1//EN" "http://www.w3.org/Graphics/SVG/1.1/DTD/svg11.dtd"><svg width="100%" height="100%" viewBox="0 0 140 25" version="1.1" xmlns="http://www.w3.org/2000/svg" xmlns:xlink="http://www.w3.org/1999/xlink" xml:space="preserve" xmlns:serif="http://www.serif.com/" style="fill-rule:evenodd;clip-rule:evenodd;stroke-linejoin:round;stroke-miterlimit:2;"><g><path d="M51.178,5.156l1.547,0l0,2.162c0.609,-0.683 2.002,-2.036 4.49,-2.162c1.455,-0.073 2.682,0.381 3.423,0.832c2.335,1.424 3.09,3.234 3.09,4.521l-0,7.257l-1.566,0c-0,0 0.12,-6.638 -0,-7.257c-0.209,-1.083 -0.936,-2.28 -1.882,-2.916c-0.797,-0.537 -1.488,-0.909 -3.065,-0.894c-0.932,0.009 -2.366,0.545 -3.194,1.488c-0.27,0.308 -1.296,1.343 -1.296,3.275l0,6.304l-1.547,0l0,-12.61Z" style="fill:#006cff;fill-rule:nonzero;stroke:#006cff;stroke-width:0.9px;"/><path d="M101.157,5.156l1.547,0l-0,2.162c0.608,-0.683 2.002,-2.036 4.489,-2.162c1.455,-0.073 2.683,0.381 3.423,0.832c2.335,1.424 3.09,3.234 3.09,4.521l0,7.257l-1.566,0c0,0 0.12,-6.638 0,-7.257c-0.209,-1.083 -0.936,-2.28 -1.881,-2.916c-0.798,-0.537 -1.488,-0.909 -3.066,-0.894c-0.932,0.009 -2.365,0.545 -3.193,1.488c-0.271,0.308 -1.296,1.343 -1.296,3.275l-0,6.304l-1.547,0l-0,-12.61Z" style="fill:#006cff;fill-rule:nonzero;stroke:#006cff;stroke-width:0.9px;"/><path d="M72.423,21.69l-1.525,-0l0,-16.566l1.525,-0l-0,2.225c0.712,-0.833 2.369,-2.257 4.977,-2.199c1.82,0.04 3.431,0.894 4.498,2.081c0.793,0.884 1.72,2.323 1.632,4.325c-0.127,2.872 -1.614,4.544 -3.5,5.554c-1.125,0.602 -3.105,0.983 -4.915,0.31c-0.985,-0.366 -1.921,-0.95 -2.692,-1.847l-0,6.117Zm9.563,-10.134c-0.024,-2.001 -0.951,-2.962 -1.416,-3.485c-0.524,-0.591 -1.821,-1.35 -3.17,-1.381c-0.746,-0.017 -2.219,0.075 -3.541,1.381c-0.494,0.487 -1.425,1.599 -1.418,3.485c0.004,0.824 0.322,2.132 1.318,3.198c0.474,0.508 1.728,1.516 3.641,1.473c0.703,-0.016 2.075,-0.259 3.267,-1.473c0.495,-0.505 1.336,-1.67 1.319,-3.198Z" style="fill:#006cff;fill-rule:nonzero;stroke:#006cff;stroke-width:0.9px;"/><path d="M87.198,5.149l-0,3.674c-0,1.684 -0.079,3.72 0.837,5.133c0.868,1.338 2.264,2.264 4.064,2.276c0.854,0.006 2.795,-0.213 4.157,-2.426c0,0 0.609,-1.188 0.609,-2.622l0,-6.06l1.513,0.025l-0,5.619c-0,3.059 -1.04,4.28 -1.409,4.712c-0.662,0.774 -1.208,1.143 -1.683,1.432c-0.477,0.29 -1.747,0.883 -3.187,0.862c-0.902,-0.012 -1.316,-0.099 -2.279,-0.428c-0.542,-0.185 -1.161,-0.545 -1.601,-0.896c-0.57,-0.454 -1.587,-1.499 -1.92,-2.494c-0.588,-1.755 -0.631,-2.661 -0.631,-5.128l-0,-3.679l1.53,-0Z" style="fill:#006cff;fill-rule:nonzero;stroke:#006cff;stroke-width:0.9px;"/><path d="M118.839,6.712l0,5.079c0,-0 0.107,2.451 2.275,3.726c1.651,0.971 3.261,0.657 3.261,0.657l-0,1.544c-0,0 -2.322,0.438 -4.55,-1.218c-2.631,-1.956 -2.532,-4.933 -2.532,-4.933l-0,-4.855l-1.744,0l-0,-1.543l1.744,0l-0,-2.605l1.546,0l0,2.605l3.502,0l-0,1.543l-3.502,0Z" style="fill:#006cff;fill-rule:nonzero;stroke:#006cff;stroke-width:0.9px;"/><path d="M47.837,11.455l-11.429,0c0.021,0.968 0.307,2.31 1.394,3.425c0.465,0.478 1.617,1.499 3.564,1.5c2.122,0.001 3.404,-1.382 3.404,-1.382l1.15,1.103c0,-0 -1.037,1.083 -2.585,1.57c-0.515,0.162 -1.227,0.301 -2.012,0.304c-1.433,0.007 -3.15,-0.485 -4.555,-1.874c-1.324,-1.308 -1.966,-3.028 -1.956,-4.646c0.019,-3.09 1.893,-4.755 2.936,-5.447c0.989,-0.655 2.253,-1.068 3.575,-1.068c1.335,-0 2.781,0.511 3.59,1.08c1.313,0.925 2.047,1.92 2.525,3.173c0.425,1.115 0.399,2.262 0.399,2.262Zm-1.844,-1.573c-0.428,-1.195 -1.14,-2.033 -2.092,-2.618c-0.294,-0.181 -1.147,-0.702 -2.578,-0.728c-0.236,-0.005 -1.236,0.011 -2.307,0.565c-0.208,0.107 -0.952,0.557 -1.398,1.107c-0.153,0.189 -0.702,0.839 -0.963,1.674l9.338,-0Z" style="fill:#006cff;fill-rule:nonzero;stroke:#006cff;stroke-width:0.9px;"/><path d="M131.966,4.464c3.681,-0 6.67,2.98 6.67,6.651c0,3.671 -2.989,6.651 -6.67,6.651c-3.681,0 -6.67,-2.98 -6.67,-6.651c0,-3.671 2.989,-6.651 6.67,-6.651Zm0,1.622c-2.783,-0 -5.043,2.253 -5.043,5.029c-0,2.776 2.26,5.029 5.043,5.029c2.784,0 5.043,-2.253 5.043,-5.029c0,-2.776 -2.259,-5.029 -5.043,-5.029Z" style="fill:#006cff;stroke:#006cff;stroke-width:0.9px;"/></g><g><g><g><path d="M11.231,24.254c-6.277,-0.473 -11.231,-5.722 -11.231,-12.118c0,-1.672 0.339,-3.266 0.951,-4.717l10.28,0l-0,16.835Zm-0,-24.238l-0,5.903l-9.521,-0c1.974,-3.306 5.472,-5.597 9.521,-5.903Z" style="fill:#d0001e;"/></g><g><path d="M12.955,24.253l-0,-24.253c6.334,0.413 11.351,5.688 11.351,12.127c0,6.439 -5.017,11.714 -11.351,12.126Z" style="fill:#006cff;"/></g></g></g></svg>